<svg width="127" height="152" viewBox="0 0 127 152" fill="none" xmlns="http://www.w3.org/2000/svg">
<path d="M109.289 89.979L111.154 136.115C111.301 139.87 108.873 143.048 105.735 143.173L18.423 146.696C15.3016 146.827 12.6217 143.854 12.4921 140.105L10.6268 93.9634C10.5876 93.097 10.694 92.2301 10.9418 91.3991C11.6804 88.8598 13.6579 86.9789 16.0287 86.9108L103.341 83.3812C105.708 83.2844 107.8 84.9756 108.77 87.4393C109.082 88.2513 109.257 89.1095 109.289 89.979Z" fill="#4461F2"/>
<path opacity="0.1" d="M109.289 89.979L111.154 136.115C111.301 139.87 108.873 143.048 105.735 143.173L18.423 146.696C15.3016 146.827 12.6217 143.854 12.4921 140.105L10.6268 93.9634C10.5876 93.097 10.694 92.2301 10.9418 91.3991C11.6804 88.8598 13.6579 86.9789 16.0287 86.9108L103.341 83.3812C105.708 83.2844 107.8 84.9756 108.77 87.4393C109.082 88.2513 109.257 89.1095 109.289 89.979Z" fill="black"/>
<path d="M118.381 117.54L117.76 117.586L117.916 119.669L118.536 119.622L118.381 117.54Z" fill="#4461F2"/>
<path d="M117.633 107.487L117.012 107.534L117.591 115.291L118.211 115.244L117.633 107.487Z" fill="#4461F2"/>
<path d="M113.557 81.9377L117.099 129.331C117.383 133.184 114.998 136.54 111.792 136.78L22.1067 143.541C18.9011 143.782 16.0393 140.823 15.7504 136.965L12.2085 89.5768C12.1406 88.6855 12.2197 87.7892 12.4425 86.9236C13.1288 84.2911 15.077 82.3066 17.5154 82.1223L107.201 75.3667C109.639 75.1823 111.875 76.8459 112.933 79.3478C113.282 80.1707 113.493 81.0458 113.557 81.9377Z" fill="#4461F2"/>
<path opacity="0.1" d="M112.933 79.3477L71.2342 104.821C69.1925 106.088 66.8768 106.843 64.4827 107.024C62.0887 107.205 59.6865 106.805 57.4792 105.859L12.4595 86.9244C13.1457 84.2918 15.0939 82.3074 17.5323 82.123L107.218 75.3674C109.639 75.1823 111.875 76.8459 112.933 79.3477Z" fill="black"/>
<path d="M97.3771 88.8463L85.3983 96.1619L81.477 98.562L71.2342 104.821C69.245 106.06 66.9928 106.812 64.66 107.016C62.3273 107.219 59.9796 106.869 57.8073 105.993L57.4566 105.858L51.9764 103.552L39.6377 98.362L33.8685 95.9355L27.3324 93.1844L27.3882 81.3788L27.5002 55.1436L78.6553 55.3871L97.4445 71.0605L97.4192 76.0972L97.3771 88.8463Z" fill="#4461F2"/>
<path opacity="0.7" d="M97.3771 88.8463L85.3983 96.1619L81.477 98.562L71.2342 104.821C69.245 106.06 66.9928 106.812 64.66 107.016C62.3273 107.219 59.9796 106.869 57.8073 105.993L57.4566 105.858L51.9764 103.552L39.6377 98.362L33.8685 95.9355L27.3324 93.1844L27.3882 81.3788L27.5002 55.1436L78.6553 55.3871L97.4445 71.0605L97.4192 76.0972L97.3771 88.8463Z" fill="#FAFAFA"/>
<g opacity="0.9">
<path d="M90.7521 75.9756L34.1208 75.7044C33.8049 75.7026 33.5023 75.577 33.2775 75.3546C33.0527 75.1321 32.9235 74.8304 32.9175 74.5137C32.9209 74.198 33.0468 73.896 33.2684 73.6718C33.4901 73.4476 33.7902 73.3187 34.105 73.3125L90.7363 73.5837C91.0522 73.5856 91.3548 73.7111 91.5796 73.9336C91.8044 74.156 91.9336 74.4577 91.9396 74.7744C91.9377 75.0905 91.8122 75.3934 91.5902 75.6179C91.3682 75.8425 91.0673 75.9709 90.7521 75.9756Z" fill="white"/>
<path d="M90.7089 83.5219L34.0776 83.2508C33.7617 83.2489 33.4591 83.1234 33.2343 82.9009C33.0095 82.6785 32.8803 82.3767 32.8743 82.0601C32.8776 81.7438 33.0034 81.4411 33.225 81.216C33.4466 80.9908 33.7467 80.8608 34.062 80.8532L90.6934 81.1244C91.0088 81.1277 91.3106 81.2537 91.5351 81.4758C91.7596 81.6979 91.8892 81.9989 91.8967 82.3151C91.8919 82.6309 91.7657 82.9327 91.5444 83.1576C91.3231 83.3825 91.0238 83.513 90.7089 83.5219Z" fill="white"/>
<path d="M90.6716 91.0629L34.0403 90.7918C33.7244 90.7899 33.4218 90.6644 33.197 90.4419C32.9722 90.2195 32.843 89.9177 32.837 89.6011C32.8389 89.2849 32.9644 88.9821 33.1864 88.7576C33.4084 88.533 33.7092 88.4046 34.0245 88.3999L90.6558 88.671C90.9711 88.6729 91.2731 88.7986 91.497 89.0212C91.7209 89.2437 91.8488 89.5454 91.8535 89.8615C91.8516 90.1767 91.727 90.4787 91.5062 90.7032C91.2854 90.9276 90.9859 91.0567 90.6716 91.0629Z" fill="white"/>
<path d="M85.3983 96.1618L81.4769 98.5619L39.6377 98.3619L33.8685 95.9354C33.9176 95.9317 33.9669 95.934 34.0155 95.9421L85.3983 96.1618Z" fill="white"/>
<path d="M69.5 104.838L69.498 104.884C69.4846 105.192 69.3545 105.484 69.1343 105.7C68.914 105.915 68.6201 106.039 68.3122 106.045L57.8298 105.994L57.4791 105.859L51.999 103.553L68.326 103.626C68.6404 103.636 68.9388 103.768 69.1579 103.994C69.377 104.22 69.4997 104.523 69.5 104.838Z" fill="white"/>
</g>
<path opacity="0.1" d="M97.4671 71.0615L83.9726 69.8624L78.678 55.3881L97.4671 71.0615Z" fill="#263238"/>
<path d="M97.4671 71.0615L84.4497 68.2143L78.678 55.3881L97.4671 71.0615Z" fill="#4461F2"/>
<path opacity="0.1" d="M108.929 13.6216C106.175 16.3873 102.567 17.2568 100.872 15.5269C99.1781 13.797 100.032 10.2122 102.781 7.44631C105.529 4.68041 109.143 3.81115 110.844 5.5073C112.546 7.20344 111.683 10.856 108.929 13.6216Z" fill="white"/>
<path opacity="0.1" d="M100.673 24.8837C100.367 24.0064 100.496 23.1717 100.963 22.9998C101.429 22.828 102.077 23.414 102.36 24.2902C102.643 25.1664 102.537 26.0022 102.07 26.1684C101.604 26.3346 100.979 25.7552 100.673 24.8837Z" fill="white"/>
<path d="M34.5856 23.9152C34.0613 35.4382 20.9459 46.1951 19.0579 46.1092C17.1699 46.0233 5.08598 34.114 5.6101 22.5966C5.96192 14.8655 12.7308 8.89179 20.735 9.25603C28.7391 9.62028 34.9374 16.1841 34.5856 23.9152Z" fill="#263238"/>
<path opacity="0.1" d="M17.8588 20.742C20.6117 17.9755 21.4679 14.3568 19.7713 12.6595C18.0747 10.9621 14.4677 11.8288 11.7148 14.5953C8.96197 17.3618 8.10572 20.9805 9.80233 22.6778C11.4989 24.3752 15.1059 23.5085 17.8588 20.742Z" fill="white"/>
<path opacity="0.1" d="M9.60029 32.0021C9.29468 31.1249 9.4233 30.2901 9.88993 30.1182C10.3566 29.9464 11.004 30.5324 11.287 31.4086C11.57 32.2848 11.4639 33.1206 10.9973 33.2925C10.5307 33.4643 9.9059 32.8793 9.60029 32.0021Z" fill="white"/>
<path d="M16.7627 82.355C16.7012 82.3522 16.6434 82.325 16.6019 82.2794C16.5604 82.2339 16.5387 82.1737 16.5415 82.112C16.5595 81.3468 16.8236 80.6077 17.2945 80.005C17.6992 79.4643 17.9322 78.8138 17.9629 78.1384C17.9936 77.4631 17.8207 76.7941 17.4668 76.2188C17.0685 75.569 16.8741 74.8142 16.9088 74.0522C16.9434 73.2902 17.2056 72.5561 17.6613 71.9452C18.0733 71.4115 18.3018 70.7583 18.3124 70.0835C18.362 69.4088 18.1941 68.7362 17.8333 68.1646C17.4347 67.516 17.2401 66.762 17.2747 66.0008C17.3093 65.2396 17.5717 64.5064 18.0275 63.8967C18.4396 63.363 18.6681 62.7097 18.6787 62.0349C18.7283 61.3603 18.5603 60.6876 18.1996 60.1161C17.801 59.4675 17.6063 58.7135 17.641 57.9523C17.6756 57.1911 17.9379 56.4579 18.3938 55.8481C18.7982 55.3094 19.031 54.6607 19.0617 53.9872C19.0923 53.3136 18.9194 52.6465 18.5656 52.0733C18.167 51.4246 17.9723 50.6706 18.007 49.9094C18.0416 49.1482 18.3039 48.415 18.7598 47.8053C19.171 47.2689 19.3993 46.6142 19.4112 45.9379C19.4154 45.8768 19.443 45.8196 19.4881 45.7783C19.5332 45.737 19.5925 45.7147 19.6535 45.7161C19.715 45.7188 19.7728 45.746 19.8143 45.7916C19.8558 45.8371 19.8775 45.8973 19.8747 45.959C19.8576 46.7235 19.5956 47.4624 19.1274 48.0662C18.7193 48.6033 18.4842 49.2524 18.4535 49.9269C18.4228 50.6014 18.598 51.2691 18.9556 51.8411C19.3505 52.491 19.543 53.2443 19.5084 54.0047C19.4738 54.765 19.2137 55.4977 18.7614 56.1091C18.3502 56.6455 18.1219 57.3001 18.11 57.9765C18.0593 58.6494 18.2275 59.3207 18.5894 59.8896C18.9843 60.5395 19.1767 61.2929 19.1421 62.0532C19.1075 62.8135 18.8474 63.5462 18.3952 64.1576C17.984 64.694 17.7556 65.3486 17.7437 66.025C17.693 66.698 17.8612 67.3692 18.2231 67.9381C18.618 68.5881 18.8104 69.3414 18.7758 70.1017C18.7412 70.862 18.4812 71.5948 18.0289 72.2061C17.6205 72.7453 17.3852 73.3962 17.3545 74.0725C17.3237 74.7487 17.4988 75.4183 17.8566 75.9923C18.2519 76.6431 18.4446 77.3975 18.4099 78.1588C18.3753 78.9201 18.1149 79.6538 17.6621 80.266C17.2502 80.802 17.0218 81.4569 17.0107 82.1334C17.0093 82.1644 17.0017 82.1948 16.9884 82.2228C16.9751 82.2508 16.9564 82.2759 16.9333 82.2966C16.9102 82.3172 16.8832 82.333 16.8539 82.343C16.8246 82.3531 16.7936 82.3571 16.7627 82.355Z" fill="#4461F2"/>
<path d="M19.0598 45.5697C18.6132 45.5494 15.5472 48.0737 15.424 50.783L22.2071 51.0917C22.3417 48.3829 19.5007 45.5898 19.0598 45.5697Z" fill="#263238"/>
<path d="M19.723 45.6851L18.389 45.6244C18.2797 45.6194 18.1871 45.7042 18.1821 45.8138L18.1757 45.9555C18.1707 46.0651 18.2552 46.1579 18.3645 46.1629L19.6985 46.2236C19.8078 46.2286 19.9004 46.1438 19.9054 46.0342L19.9118 45.8925C19.9168 45.7829 19.8323 45.6901 19.723 45.6851Z" fill="#4461F2"/>
<path d="M116.162 86.6316C119.73 83.6348 120.2 78.3063 117.212 74.73C114.224 71.1538 108.91 70.684 105.343 73.6807C101.775 76.6775 101.305 82.006 104.293 85.5823C107.281 89.1585 112.595 89.6283 116.162 86.6316Z" fill="#DE5753"/>
<path d="M112.608 76.158L112.221 84.66L109.881 84.5535L110.134 78.9875C109.777 79.2389 109.397 79.4573 109 79.6402C108.56 79.8258 108.107 79.9761 107.643 80.0896L107.729 78.1908C108.401 78.0308 109.038 77.7479 109.608 77.3562C110.059 77.0175 110.429 76.5822 110.692 76.0821L112.608 76.158Z" fill="white"/>
</svg>
